<svg version="1.1" id="sceneAddVoyage" xmlns="http://www.w3.org/2000/svg" xmlns:xlink="http://www.w3.org/1999/xlink" x="0px" y="0px"
	 width="100px" height="100px" viewBox="0 0 100 100" enable-background="new 0 0 100 100" xml:space="preserve">
<g>
	<path id="addVsvg" fill="#D3D8DD" d="M50,98.408C23.309,98.408,1.593,76.691,1.593,50C1.593,23.308,23.309,1.592,50,1.592
		c26.692,0,48.407,21.715,48.407,48.408C98.407,76.691,76.692,98.408,50,98.408z M50,4.423C24.869,4.423,4.423,24.869,4.423,50
		S24.869,95.576,50,95.576c25.132,0,45.577-20.445,45.577-45.576S75.132,4.423,50,4.423z"/>
	<path id="addVsvg" fill="#D3D8DD" d="M66.046,48.297H51.703V33.954c0-0.938-0.761-1.698-1.698-1.698c-0.938,0-1.699,0.76-1.699,1.698v14.343
		H33.963c-0.938,0-1.698,0.761-1.698,1.699c0,0.938,0.76,1.698,1.698,1.698h14.343v14.344c0,0.938,0.761,1.699,1.699,1.699
		c0.938,0,1.698-0.762,1.698-1.699V51.693h14.343c0.938,0,1.699-0.76,1.699-1.698C67.745,49.058,66.984,48.297,66.046,48.297z"/>
</g>
</svg>
