<svg version="1.1" id="Calque_1" xmlns="http://www.w3.org/2000/svg" xmlns:xlink="http://www.w3.org/1999/xlink" x="0px" y="0px"
	 width="55px" height="55px" viewBox="0 0 55 55" enable-background="new 0 0 55 55" xml:space="preserve">
<g>
	<path id="navsec-path" fill="#AFB4B7" d="M11,41H7.761C5.604,41,3,39.073,3,36.68V9.4C3,7.334,4.869,6,7.761,6H43.84C47.7,6,48,8.603,48,9.4V14h-3
		V9.4c0-0.14-0.024-0.189-0.025-0.189l0,0C44.974,9.21,44.746,9,43.84,9H7.761C6.722,9,6.094,9.267,5.988,9.409L6,36.68
		C6,37.17,7.001,38,7.761,38H11V41z"/>
	<path id="navsec-path" fill="#AFB4B7" d="M47.859,49H13.14C10.857,49,9,47.143,9,44.859V17.14C9,14.857,10.857,13,13.14,13h34.719
		C50.143,13,52,14.857,52,17.14v27.719C52,47.143,50.143,49,47.859,49z M13.14,16C12.511,16,12,16.511,12,17.14v27.719
		C12,45.488,12.511,46,13.14,46h34.719C48.488,46,49,45.488,49,44.859V17.14c0-0.629-0.512-1.14-1.141-1.14H13.14z"/>
	<path id="navsec-path" fill="#AFB4B7" d="M51.205,47H38.708l-6.876-8.696l6.209-8.308L51.205,47z M39.192,46h9.974L38.055,31.648l-4.961,6.638
		L39.192,46z"/>
	<path id="navsec-path" fill="#AFB4B7" d="M39.971,47H11.535L11.5,34.478l3.683-4.184l6.199-7.271L39.971,47z M12.533,46H37.93L21.344,24.607
		l-5.406,6.341L12.5,34.854L12.533,46z"/>
	<path id="navsec-path" fill="#AFB4B7" d="M42.843,25.647c-2.182,0-3.956-1.776-3.956-3.959c0-2.182,1.774-3.957,3.956-3.957
		c2.182,0.001,3.957,1.776,3.957,3.957C46.8,23.871,45.024,25.647,42.843,25.647z M42.843,18.731c-1.63,0-2.956,1.327-2.956,2.957
		c0,1.631,1.326,2.959,2.956,2.959c1.631,0,2.957-1.328,2.957-2.959C45.8,20.058,44.474,18.732,42.843,18.731z"/>
</g>
<script  src="vues/includes/js/svg.js"></script>
</svg>
