<svg version="1.1" id="Calque_1" xmlns="http://www.w3.org/2000/svg" xmlns:xlink="http://www.w3.org/1999/xlink" x="0px" y="0px"
	 width="55px" height="55px" viewBox="0 0 55 55" enable-background="new 0 0 55 55" xml:space="preserve">
<path fill="#444444" d="M27.927,47.834c-11.262,0-20.424-9.162-20.424-20.425c0-11.263,9.162-20.425,20.424-20.425
	s20.424,9.162,20.424,20.425C48.352,38.672,39.189,47.834,27.927,47.834z M27.927,9.984c-9.607,0-17.424,7.816-17.424,17.425
	c0,9.608,7.816,17.425,17.424,17.425c9.608,0,17.424-7.816,17.424-17.425C45.352,17.8,37.535,9.984,27.927,9.984z"/>
<g>
	<path fill="#444444" d="M21.87,34.148c-0.212,0-0.424-0.08-0.586-0.242c-0.324-0.323-0.324-0.85,0-1.174l12.112-12.11
		c0.324-0.324,0.849-0.324,1.172,0c0.324,0.324,0.324,0.849,0,1.173L22.457,33.906C22.295,34.068,22.083,34.148,21.87,34.148z"/>
	<path fill="#444444" d="M33.982,34.438c-0.213,0-0.424-0.08-0.586-0.242l-12.112-12.11c-0.324-0.324-0.324-0.85,0-1.174
		c0.324-0.324,0.849-0.324,1.173,0l12.111,12.11c0.324,0.324,0.324,0.85,0,1.174C34.407,34.355,34.195,34.438,33.982,34.438z"/>
</g>
</svg>
