<svg version="1.1" id="Calque_1" xmlns="http://www.w3.org/2000/svg" xmlns:xlink="http://www.w3.org/1999/xlink" x="0px" y="0px"
	 width="55px" height="55px" viewBox="0 0 55 55" enable-background="new 0 0 55 55" xml:space="preserve">
<path fill="#AFB4B7" d="M15.213,48.885L15.213,48.885c-1.262,0-2.213-0.967-2.213-2.248v-8.638H5.986
	C4.319,37.999,2,35.944,2,33.921V8.104C2,6,4.398,6,5.986,6H50.45c2.367,0,2.551,1.61,2.551,2.104v25.818
	c0,1.721,0,4.078-2.551,4.078l-21.365-0.012c-0.547,0-0.765,0.051-0.836,0.075L16.935,48.19
	C16.487,48.624,15.861,48.885,15.213,48.885z M6.074,34.999h7.801c0.397,0.005,1.106,0.013,1.647,0.576
	c0.321,0.334,0.491,0.78,0.477,1.258l0,8.169l10.27-9.192c0.883-0.86,2.314-0.837,3.32-0.814L29.938,35h20.05
	c0.014-0.305,0.014-0.706,0.014-1.078V9H5.986C5.561,9,5.24,9.011,5,9.026v24.895C5.035,34.207,5.687,34.86,6.074,34.999z"/>
</svg>
