<svg version="1.1" id="Calque_1" xmlns="http://www.w3.org/2000/svg" xmlns:xlink="http://www.w3.org/1999/xlink" x="0px" y="0px"
	 width="55px" height="55px" viewBox="0 0 55 55" enable-background="new 0 0 55 55" xml:space="preserve">
<g>
	<path id="iconsvgEdit" fill="#AFB4B7" d="M42.5,24.5c-0.828,0-1.5,0.672-1.5,1.5v21.365L8,47.396V9h28c0.828,0,1.5-0.672,1.5-1.5
		S36.828,6,36,6H6.5C5.671,6,5,6.672,5,7.5v41.398c0,0.396,0.158,0.58,0.44,0.863C5.721,50.041,6.103,50,6.5,50h0.001l36.001,0.165
		C43.329,50.164,44,49.691,44,48.863V26C44,25.172,43.328,24.5,42.5,24.5z"/>
	<path id="iconsvgEdit_1_" fill="#AFB4B7" d="M50.07,4.546c-1.053-1.052-2.457-1.165-3.014-1.165c-0.021,0-0.135,0.003-0.152,0.004
		C46.66,3.4,46.43,3.503,46.257,3.676l-17.55,17.551c-0.075,0.074-0.137,0.16-0.186,0.254l-3.384,6.653
		c-0.197,0.388-0.122,0.857,0.187,1.163c0.192,0.189,0.447,0.29,0.705,0.29c0.156,0,0.314-0.037,0.459-0.112l6.79-3.521
		c0.094-0.047,0.178-0.109,0.248-0.181L50.928,8.358c0.17-0.171,0.272-0.398,0.289-0.639C51.23,7.525,51.311,5.788,50.07,4.546z
		 M32.221,24.248l-3.89,2.017l1.901-3.737L44.337,8.424l1.849,1.849L32.221,24.248z M47.6,8.859L45.751,7.01l1.61-1.61
		c0.35,0.041,0.904,0.169,1.295,0.56c0.39,0.39,0.513,0.941,0.551,1.29L47.6,8.859z"/>
</g>
</svg>
