<svg version="1.1" id="Calque_1" xmlns="http://www.w3.org/2000/svg" xmlns:xlink="http://www.w3.org/1999/xlink" x="0px" y="0px"
	 width="55px" height="55px" viewBox="0 0 55 55" enable-background="new 0 0 55 55" xml:space="preserve">
<g>
	<rect x="10" y="7.374" fill="#AFB4B7" width="34" height="2"/>
	<path fill="#AFB4B7" d="M43,3H14.584H9C6.243,3,4,5.243,4,8v38c0,2.757,2.243,5,5,5h34c0.553,0,1-0.447,1-1V11H9
		c-1.654,0-2.977-0.779-2.977-2.434S7.346,6,9,6h5.584H43h5v38c0,0.553,0.447,1,1,1s1-0.447,1-1V3H43z M9.507,14H41v34H9.507
		C7.908,48,6,46.849,6,45.25V12.373C6,12.986,8.415,14,9.507,14z"/>
</g>
</svg>
