<svg version="1.1" id="Calque_1" xmlns="http://www.w3.org/2000/svg" xmlns:xlink="http://www.w3.org/1999/xlink" x="0px" y="0px"
	 width="55px" height="55px" viewBox="0 0 55 55" enable-background="new 0 0 55 55" xml:space="preserve">
<g>
	<path fill="#AFB4B7" d="M13.942,36.352c-0.125,0-0.25-0.003-0.377-0.008c-2.273-0.099-4.373-1.078-5.911-2.756
		c-1.538-1.679-2.331-3.855-2.231-6.13c0.205-4.694,4.136-8.33,8.885-8.142c2.274,0.099,4.374,1.077,5.912,2.755
		c1.538,1.679,2.33,3.855,2.23,6.13C22.251,32.771,18.514,36.352,13.942,36.352z M13.932,22.309c-2.961,0-5.382,2.319-5.512,5.28
		c-0.064,1.474,0.45,2.885,1.446,3.972c0.997,1.088,2.356,1.722,3.83,1.785c3.083,0.147,5.625-2.231,5.757-5.275
		c0.064-1.475-0.449-2.885-1.445-3.972c-0.997-1.087-2.357-1.721-3.831-1.784C14.095,22.311,14.013,22.309,13.932,22.309z"/>
	<path fill="#AFB4B7" d="M40.558,51.776c-0.125,0-0.25-0.003-0.376-0.008c-2.273-0.099-4.373-1.078-5.911-2.756
		c-1.538-1.679-2.331-3.855-2.231-6.13c0.205-4.695,4.161-8.317,8.886-8.142c2.273,0.099,4.372,1.077,5.911,2.755
		c1.537,1.679,2.33,3.855,2.23,6.131C48.867,48.196,45.13,51.776,40.558,51.776z M40.546,37.733c-2.96,0-5.38,2.319-5.51,5.28
		c-0.063,1.474,0.45,2.885,1.446,3.972c0.996,1.088,2.356,1.722,3.829,1.785c3.103,0.144,5.626-2.232,5.759-5.274
		c0.063-1.475-0.45-2.886-1.447-3.973c-0.996-1.087-2.355-1.721-3.829-1.784C40.711,37.735,40.628,37.733,40.546,37.733z"/>
	
		<rect x="18.733" y="34.456" transform="matrix(0.8641 0.5033 -0.5033 0.8641 21.5254 -8.8199)" fill="#AFB4B7" width="16.729" height="2"/>
	<path fill="#AFB4B7" d="M40.354,20.603c-1.573,0-3.115-0.438-4.46-1.266c-1.938-1.191-3.297-3.068-3.824-5.282
		s-0.161-4.501,1.032-6.439c1.563-2.541,4.279-4.058,7.264-4.058c1.573,0,3.116,0.438,4.461,1.267
		c1.938,1.191,3.297,3.067,3.823,5.282c0.527,2.214,0.161,4.501-1.032,6.439C46.054,19.086,43.338,20.603,40.354,20.603z
		 M40.365,6.558c-1.936,0-3.695,0.983-4.709,2.63c-0.773,1.256-1.01,2.738-0.669,4.172c0.342,1.435,1.222,2.65,2.478,3.423
		c0.873,0.537,1.871,0.82,2.889,0.82c1.936,0,3.695-0.982,4.709-2.629c0.772-1.256,1.01-2.738,0.668-4.173
		c-0.341-1.435-1.221-2.649-2.477-3.422C42.381,6.842,41.383,6.558,40.365,6.558z"/>
	
		<rect x="26" y="11.679" transform="matrix(0.5101 0.8601 -0.8601 0.5101 30.4662 -13.4041)" fill="#AFB4B7" width="2.001" height="16.729"/>
</g>
</svg>
