<svg version="1.1" id="Calque_1" xmlns="http://www.w3.org/2000/svg" xmlns:xlink="http://www.w3.org/1999/xlink" x="0px" y="0px"
	 width="55px" height="55px" viewBox="0 0 55 55" enable-background="new 0 0 55 55" xml:space="preserve">
<path fill="#AFB4B7" d="M52.257,50.243C52.093,39.049,41.229,33.17,36.848,31.251c3.136-2.92,5.134-7.253,5.134-12.093
	c0-8.77-6.541-15.905-14.582-15.905c-8.041,0-14.582,7.135-14.582,15.905c0,4.892,2.039,9.272,5.234,12.192
	C13.007,32.987,1.867,38.018,1.867,50.5c0,0.828,0.671,1.5,1.5,1.5h47.392c0.008,0,0.016,0.001,0.02,0c0.829,0,1.5-0.672,1.5-1.5
	C52.278,50.412,52.271,50.327,52.257,50.243z M15.818,19.158c0-7.116,5.195-12.905,11.582-12.905
	c6.387,0,11.582,5.789,11.582,12.905s-5.195,12.905-11.582,12.905C21.013,32.063,15.818,26.274,15.818,19.158z M4.932,49
	c0.983-11.07,12.74-14.566,15.544-15.245c1.084,0.656,3.52,1.882,6.586,1.882c3.387,0,6.355-1.345,7.641-2.025
	C37.4,34.692,48.128,39.568,49.176,49H4.932z"/>
</svg>
